<?xml version="1.0" encoding="UTF-8" standalone="no"?><!DOCTYPE svg PUBLIC "-//W3C//DTD SVG 1.1//EN" "http://www.w3.org/Graphics/SVG/1.1/DTD/svg11.dtd"><svg width="100%" height="100%" viewBox="0 0 418 97" version="1.1" xmlns="http://www.w3.org/2000/svg" xmlns:xlink="http://www.w3.org/1999/xlink" xml:space="preserve" xmlns:serif="http://www.serif.com/" style="fill-rule:evenodd;clip-rule:evenodd;stroke-linejoin:round;stroke-miterlimit:2;"><rect id="Artboard1" x="0" y="0" width="417.137" height="96.216" style="fill:none;"/><path d="M13.38,35.805c6.667,0.098 11.537,3.415 15.381,8.092c4.398,5.35 7.482,12.443 10.303,18.786c2.355,5.293 4.546,10.08 7.074,13.062c1.934,2.281 4.093,3.561 6.579,3.54c2.405,-0.021 4.485,-1.301 6.323,-3.56c2.392,-2.942 4.417,-7.635 6.522,-12.84c2.523,-6.237 5.187,-13.228 8.943,-18.593c3.112,-4.444 6.98,-7.759 12.244,-8.344c1.269,3.826 1.955,7.913 1.955,12.16c-0,21.338 -17.324,38.662 -38.663,38.662c-21.338,0 -38.663,-17.324 -38.663,-38.662c0,-4.3 0.704,-8.437 2.002,-12.303Zm15.89,-20.304c4.034,5.234 6.94,11.911 9.612,17.917c2.354,5.293 4.545,10.079 7.073,13.061c1.935,2.282 4.093,3.561 6.579,3.54c2.406,-0.02 4.486,-1.301 6.323,-3.56c2.392,-2.941 4.417,-7.635 6.523,-12.84c2.22,-5.49 4.551,-11.565 7.639,-16.599c5.62,4.162 10.074,9.811 12.777,16.363c-5.724,0.849 -10.028,4.466 -13.471,9.383c-3.866,5.52 -6.634,12.702 -9.23,19.121c-1.99,4.919 -3.859,9.378 -6.12,12.158c-1.266,1.556 -2.625,2.564 -4.281,2.578c-1.737,0.015 -3.174,-1.006 -4.526,-2.6c-2.4,-2.83 -4.437,-7.397 -6.672,-12.422c-2.915,-6.554 -6.134,-13.865 -10.678,-19.394c-4.156,-5.056 -9.397,-8.651 -16.445,-9.033c3.061,-7.296 8.297,-13.458 14.897,-17.673Zm2.307,-1.364c5.487,-2.991 11.779,-4.692 18.464,-4.692c7.648,0 14.78,2.225 20.784,6.064c-3.196,5.188 -5.622,11.447 -7.913,17.112c-1.99,4.92 -3.859,9.379 -6.12,12.159c-1.265,1.555 -2.624,2.563 -4.281,2.577c-1.736,0.015 -3.174,-1.006 -4.525,-2.599c-2.4,-2.831 -4.437,-7.397 -6.672,-12.422c-2.71,-6.092 -5.682,-12.839 -9.737,-18.199Z" style="fill:#df77ff;"/><path d="M128.102,39.144c-0.258,-4.58 -1.806,-7.91 -4.644,-9.989c-2.856,-1.985 -6.459,-2.977 -10.808,-2.977c-3.317,-0 -6.367,0.839 -9.15,2.519c-2.875,1.718 -4.349,4.591 -4.423,8.618c0,1.966 0.416,3.589 1.247,4.867c0.757,1.26 1.801,2.301 3.131,3.121c1.312,0.745 2.781,1.346 4.406,1.804c0.795,0.229 1.626,0.449 2.494,0.659c0.795,0.229 1.626,0.458 2.494,0.687c1.792,0.324 3.52,0.677 5.182,1.059c1.589,0.401 3.048,0.945 4.378,1.632c1.312,0.707 2.365,1.613 3.159,2.72c0.758,1.126 1.137,2.587 1.137,4.381c-0,1.794 -0.362,3.302 -1.084,4.523c-0.76,1.203 -1.742,2.177 -2.946,2.921c-1.186,0.744 -2.436,1.279 -3.752,1.603c-1.371,0.344 -2.705,0.516 -4.002,0.516c-4.094,0.038 -7.587,-0.936 -10.477,-2.921c-2.837,-1.965 -4.218,-5.191 -4.141,-9.676l-2.457,-0c0.074,5.305 1.737,9.112 4.988,11.421c3.215,2.271 7.242,3.406 12.083,3.406c3.326,0 6.485,-0.897 9.478,-2.691c3.067,-1.775 4.655,-4.81 4.766,-9.105c0,-2.1 -0.378,-3.837 -1.135,-5.211c-0.795,-1.336 -1.847,-2.415 -3.159,-3.235c-1.33,-0.821 -2.789,-1.48 -4.377,-1.976c-1.663,-0.477 -3.38,-0.868 -5.154,-1.174c-0.868,-0.248 -1.708,-0.467 -2.521,-0.658c-0.868,-0.153 -1.699,-0.344 -2.493,-0.573c-1.626,-0.401 -3.094,-0.916 -4.405,-1.546c-1.33,-0.611 -2.374,-1.47 -3.131,-2.577c-0.831,-1.05 -1.247,-2.376 -1.247,-3.98c0,-1.756 0.379,-3.197 1.136,-4.323c0.72,-1.183 1.625,-2.109 2.715,-2.777c2.382,-1.241 4.801,-1.842 7.258,-1.804c3.786,-0 6.87,0.878 9.252,2.634c2.346,1.794 3.592,4.495 3.74,8.102l2.462,0Z" style="fill:#fff;fill-rule:nonzero;"/><path d="M148.157,27.18l-16.299,41.856l2.689,0l5.155,-13.43l19.404,0l5.128,13.43l2.661,0l-16.022,-41.856l-2.716,-0Zm-7.651,26.198l9.009,-23.682l0.111,0l8.704,23.682l-17.824,0Z" style="fill:#fff;fill-rule:nonzero;"/><path d="M170.88,69.036l2.457,0l-0,-38.71l0.111,0l25.806,38.71l2.942,0l-0,-41.856l-2.457,-0l-0,38.423l-0.111,0l-25.613,-38.423l-3.135,-0l0,41.856Z" style="fill:#fff;fill-rule:nonzero;"/><path d="M213.075,29.41l10.419,0c1.593,0 3.334,0.153 5.223,0.458c1.871,0.344 3.676,1.145 5.418,2.405c1.741,1.203 3.176,3.064 4.306,5.584c1.112,2.539 1.686,5.937 1.723,10.194c-0.111,7.082 -1.834,12.007 -5.168,14.775c-3.316,2.729 -6.983,4.056 -11.002,3.98l-10.919,-0l-0,-37.396Zm-2.457,39.626l13.161,0c6.502,-0.038 11.287,-2.071 14.353,-6.098c2.992,-3.875 4.489,-8.837 4.489,-14.887c0.076,-5.555 -1.208,-10.383 -3.852,-14.487c-2.771,-4.142 -7.73,-6.27 -14.879,-6.384l-13.272,-0l-0,41.856Z" style="fill:#fff;fill-rule:nonzero;"/><path d="M259.632,29.41l-0,39.626l2.457,0l-0,-39.626l14.318,0l0,-2.23l-31.035,-0l-0,2.23l14.26,0Z" style="fill:#fff;fill-rule:nonzero;"/><path d="M289.272,27.18l-16.299,41.856l2.689,0l5.156,-13.43l19.404,0l5.127,13.43l2.662,0l-16.022,-41.856l-2.717,-0Zm-7.65,26.198l9.009,-23.682l0.111,0l8.703,23.682l-17.823,0Z" style="fill:#fff;fill-rule:nonzero;"/><path d="M314.452,48.391l13.785,0c1.389,0 2.77,0.096 4.141,0.287c1.334,0.286 2.584,0.782 3.752,1.489c1.185,0.611 2.121,1.508 2.807,2.692c0.648,1.165 0.972,2.644 0.972,4.439c-0.166,6.3 -4.057,9.469 -11.672,9.508l-13.785,-0l0,-18.415Zm-2.457,20.645l16.239,0c4.304,0 7.722,-1.012 10.253,-3.035c2.549,-1.966 3.842,-4.867 3.879,-8.703c-0.037,-2.1 -0.435,-3.856 -1.194,-5.268c-0.833,-1.336 -1.824,-2.367 -2.971,-3.092c-1.092,-0.782 -2.111,-1.317 -3.055,-1.603c-0.962,-0.267 -1.61,-0.363 -1.944,-0.286l-0.111,-0.115c2.412,-0.344 4.318,-1.365 5.717,-3.063c1.381,-1.642 2.09,-3.589 2.127,-5.841c-0,-1.374 -0.185,-2.729 -0.554,-4.065c-0.424,-1.279 -1.143,-2.424 -2.158,-3.436c-0.94,-1.03 -2.241,-1.851 -3.901,-2.462c-1.623,-0.592 -3.661,-0.887 -6.114,-0.887l-16.213,-0l0,41.856Zm2.457,-39.626l13.758,0c2.792,0 5.196,0.582 7.211,1.747c1.997,1.26 3.014,3.389 3.051,6.387c-0.037,5.594 -3.457,8.467 -10.262,8.62l-13.758,-0l0,-16.754Z" style="fill:#fff;fill-rule:nonzero;"/><path d="M348.928,69.036l25.488,0l0,-2.23l-23.032,-0l0,-39.626l-2.456,-0l-0,41.856Z" style="fill:#fff;fill-rule:nonzero;"/><path d="M380.701,66.806l0,-18.415l23.31,0l-0,-2.227l-23.31,-0l0,-16.754l24.78,0l-0,-2.23l-27.237,-0l0,41.856l27.514,0l0,-2.23l-25.057,-0Z" style="fill:#fff;fill-rule:nonzero;"/></svg>